<?xml version="1.0" encoding="UTF-8" standalone="no"?>
<svg
   xmlns:dc="http://purl.org/dc/elements/1.1/"
   xmlns:cc="http://creativecommons.org/ns#"
   xmlns:rdf="http://www.w3.org/1999/02/22-rdf-syntax-ns#"
   xmlns:svg="http://www.w3.org/2000/svg"
   xmlns="http://www.w3.org/2000/svg"
   xmlns:xlink="http://www.w3.org/1999/xlink"
   id="svg8"
   version="1.1"
   viewBox="0 0 84.666736 238.12561"
   height="900"
   width="320">
  <defs
     id="defs2" />
  <metadata
     id="metadata5">
    <rdf:RDF>
      <cc:Work
         rdf:about="">
        <dc:format>image/svg+xml</dc:format>
        <dc:type
           rdf:resource="http://purl.org/dc/dcmitype/StillImage" />
        <dc:title></dc:title>
      </cc:Work>
    </rdf:RDF>
  </metadata>
  <g
     id="layer1">
    <image
       xlink:href="gumroad%20bg/tribal-separators-collection_1261-2.jpg"
       y="48.212109"
       x="778.78534"
       width="165.62917"
       height="165.62917"
       preserveAspectRatio="none"
       id="image871" />
    <path
       transform="scale(0.26458333)"
       d="M 104.01172,52.908203 92.402344,72.898438 78.341797,72.804688 71.357422,84.9375 l 13.623047,0.738281 -6.544922,11.269531 -9.375,-1.103515 -6.519531,-11.378906 H 49.46875 l 10.685547,18.203129 -7.074219,10.5039 7.81836,14.47852 7.039062,-11.71875 6.871094,11.71093 -5.701172,8.35352 -12.876953,-0.36523 -6.310547,10.81836 h 22.292969 l 7.121093,11.75781 15.910157,0.81836 -7.810547,-12.57617 h 14.144526 l 3.97461,8.35742 -7.398433,12.37695 6.310543,10.36719 10.26368,-17.36328 14.73828,0.14062 7.35351,-12.64258 -14.63867,-0.10351 7.02734,-11.89063 10.49414,0.0957 6.00586,10.20898 12.39844,-0.22656 -9.36914,-16.26563 6.43555,-12.88476 -7.07031,-11.30274 -6.96094,10.99414 -6.56836,-11.40039 5.27734,-9.523434 12.61914,0.121093 6.31055,-11.269531 -22.94727,0.08594 -6.25195,-10.927735 -14.93164,-0.191406 6.4043,11.173828 -13.22852,0.04883 -4.68359,-7.49414 7.17969,-12.527344 z m -11.492189,41.697265 6.210938,0.179687 5.998051,8.986325 5.73046,-8.642575 5.2754,0.152344 4.76562,7.970701 -3.76367,7.23438 8.36914,0.47656 3.02344,5.05664 -3.87696,6.56055 -8.61914,-0.40625 4.13086,8.00195 -3.35351,5.67578 h -7.42969 l -4.0293,-6.60351 -3.90039,6.60351 h -8.531249 l -3.611328,-5.67187 5.236328,-7.81446 -10.798828,-0.91992 -3.451172,-5.42578 3.931641,-6.66797 10.697266,0.58789 -5.994141,-8.56445 z m 133.988279,69.689452 21.08008,44.90235 20.05078,-44.38672 z m -37.01562,20.56641 16.45117,44.38672 22.45117,-44.04493 c 0,10e-6 -37.53133,-0.34179 -38.90234,-0.34179 z m 43.52929,5.99805 -20.39453,44.72851 40.61719,0.34375 z m -131.40429,27.65234 c -14.360935,0.1371 -25.930386,11.8181 -25.92969,26.17969 0.001,14.4579 11.721795,26.17777 26.17969,26.17773 14.4579,4e-5 26.17865,-11.71983 26.17969,-26.17773 4e-5,-14.45866 -11.72103,-26.17973 -26.17969,-26.17969 -0.0833,-4e-4 -0.16667,-4e-4 -0.25,0 z m 99.33398,73.79883 -16.03711,16.03515 15.63477,15.63672 16.03711,-16.03711 z m 17.43945,17.03906 -16.0371,16.03516 15.63476,15.63671 16.03711,-16.0371 z m -35.48242,0.80078 -16.03515,16.03711 15.63476,15.63477 16.03711,-16.03516 z m 17.64063,17.24023 -16.03711,16.03516 15.63672,15.63672 16.03711,-16.03711 z m -83.54492,29.33206 -5.0586,8.71093 -6.12695,-0.041 -3.04297,5.28711 5.93555,0.32031 -2.85156,4.91016 -4.08399,-0.48047 -2.841796,-4.95899 h -5.695313 l 4.65625,7.93164 -3.082031,4.57618 3.40625,6.30859 3.06641,-5.10547 2.99414,5.10352 -2.48438,3.63867 -5.609373,-0.15821 -2.75,4.7129 h 9.712893 l 3.10156,5.12304 6.93359,0.35742 -3.40429,-5.48046 h 6.16406 l 1.73047,3.64062 -3.22266,5.39453 2.74805,4.51563 4.47266,-7.56446 6.42187,0.0606 3.20508,-5.50781 -6.37891,-0.0449 3.06055,-5.18164 4.57422,0.041 2.61523,4.44727 5.40235,-0.0977 -4.08204,-7.08789 2.80469,-5.61328 -3.08008,-4.92383 -3.0332,4.78906 -2.86133,-4.96679 2.29883,-4.14844 5.49805,0.0527 2.75,-4.91015 -9.99805,0.0352 -2.72461,-4.76172 -6.50586,-0.084 2.78906,4.86914 -5.76367,0.0215 -2.03906,-3.26562 3.12695,-5.45703 z m -5.00782,18.16796 2.70703,0.0781 2.61329,3.91406 2.49609,-3.76562 2.29883,0.0664 2.07617,3.47461 -1.64062,3.15039 3.64648,0.20703 1.31641,2.20508 -1.6875,2.85742 -3.75586,-0.17578 1.79882,3.48633 -1.46093,2.47266 h -3.23633 l -1.75586,-2.87695 -1.69922,2.87695 h -3.7168 l -1.57421,-2.47071 2.2832,-3.40624 -4.70508,-0.4004 -1.50391,-2.36328 1.71289,-2.90625 4.66016,0.25586 -2.61133,-3.73047 z m 58.1211,50.91993 10.26562,22.88281 10.35352,-22.70898 z m 24.01367,3.39453 -11.39844,22.35937 c 0,0 19.05396,0.17383 19.75,0.17383 z m -21.14258,10.17773 -10.17969,22.53516 20.88086,0.25976 z m -21.48437,79.68944 c 0,0 -2.40235,1.20155 -2.40235,2.70312 l -0.30078,22.52344 3.9043,2.70508 c 0,0 -0.90083,-26.12968 -1.20117,-27.93164 z m -16.75977,1.30468 c 0,0 -4.2054,-9.5e-4 2.10156,3.30274 6.30696,3.30361 6.00675,11.41272 2.70313,14.41601 -3.30368,3.00333 -6.60758,-1.80243 -5.40625,-4.20508 1.20131,-2.40268 5.10611,-1.8009 4.20508,-4.5039 -0.90098,-2.70297 -5.10698,0.30029 -8.71094,2.70312 -3.60397,2.40273 -0.29874,16.81923 10.21289,9.61133 10.51156,-7.20797 2.10246,-19.22189 -5.10547,-21.32422 z m 30.57422,0 c -7.20794,2.10233 -15.61703,14.11625 -5.10547,21.32422 10.51163,7.2079 13.81491,-7.2086 10.21094,-9.61133 -3.60397,-2.40257 -7.80801,-5.40609 -8.70899,-2.70312 -0.90098,2.703 3.00376,2.10122 4.20508,4.5039 1.20126,2.40265 -2.10262,7.20841 -5.40625,4.20508 -3.30362,-3.00329 -3.60383,-11.1124 2.70313,-14.41601 6.30696,-3.30369 2.10156,-3.30274 2.10156,-3.30274 z m -24.62695,24.82422 -10.21094,1.20117 c 0,0 1.20058,2.10142 2.10156,3.30274 l 9.00977,0.60156 2.40429,-1.20117 c 0,0 -2.10329,-3.30358 -3.30468,-3.9043 z m 15.3164,0.30078 c 0,0 0.60141,2.40223 1.80274,3.60352 0,0 10.81235,1.20079 12.01367,0.90039 l 0.90039,-3.60547 c 0,0 -12.91478,-0.89844 -14.7168,-0.89844 z m -6.60547,6.00586 -0.30078,25.22852 3.00196,-0.30078 1.20312,-24.32617 z m -14.70898,0.40625 c -6.3531,-0.22866 -7.98488,9.65526 -5.05664,11.60742 3.60396,2.40265 7.80996,5.40418 8.71094,2.70118 0.90103,-2.70297 -3.00377,-2.10123 -4.20508,-4.50391 -1.20133,-2.40268 2.10257,-7.20837 5.40625,-4.20508 3.30362,3.00333 3.60383,11.11241 -2.70313,14.41602 -6.30696,3.30368 -2.10156,3.30468 -2.10156,3.30469 7.20793,-2.10233 15.61703,-14.11625 5.10547,-21.32422 -1.97088,-1.35145 -3.69014,-1.94337 -5.15625,-1.9961 z m 30.67383,0 c -1.46605,0.0529 -3.18336,0.64465 -5.1543,1.9961 -10.51156,7.20797 -2.10247,19.22189 5.10547,21.32422 0,0 4.2054,-10e-4 -2.10156,-3.30469 -6.30696,-3.30361 -6.00675,-11.41269 -2.70313,-14.41602 3.30363,-3.00329 6.60751,1.8024 5.40625,4.20508 -1.20132,2.40268 -5.10606,1.80094 -4.20508,4.50391 0.90098,2.703 5.10502,-0.29838 8.70899,-2.70118 2.92823,-1.95216 1.29646,-11.83623 -5.05664,-11.60742 z m 10.80664,87.18943 c -9.06802,0.69751 -20.22818,16.74072 -11.16016,45.33984 9.06802,28.59916 31.38892,41.85202 25.8086,70.45117 -3.53348,18.10909 -8.74014,26.97305 -12.08789,31.05078 6.07569,-6.63409 18.08725,-24.18246 12.78515,-55.46484 -6.9754,-41.1549 -25.1116,-57.89682 -24.41406,-71.84766 0.69754,-13.9508 9.06836,-19.52929 9.06836,-19.52929 z m 2.56055,146.84179 c -1.91745,2.09367 -3.25782,3.12891 -3.25782,3.12891 0,0 1.31856,-0.7668 3.25782,-3.12891 z"
       style="fill:#434957;fill-opacity:1;stroke-width:0.596995"
       id="path4536" />
  </g>
</svg>
