<?xml version="1.0" encoding="UTF-8" standalone="no"?>
<svg
   xmlns:dc="http://purl.org/dc/elements/1.1/"
   xmlns:cc="http://creativecommons.org/ns#"
   xmlns:rdf="http://www.w3.org/1999/02/22-rdf-syntax-ns#"
   xmlns:svg="http://www.w3.org/2000/svg"
   xmlns="http://www.w3.org/2000/svg"
   id="svg8"
   version="1.1"
   viewBox="0 0 507.99999 285.75001"
   height="1080"
   width="1920">
  <defs
     id="defs2" />
  <metadata
     id="metadata5">
    <rdf:RDF>
      <cc:Work
         rdf:about="">
        <dc:format>image/svg+xml</dc:format>
        <dc:type
           rdf:resource="http://purl.org/dc/dcmitype/StillImage" />
        <dc:title></dc:title>
      </cc:Work>
    </rdf:RDF>
  </metadata>
  <g
     id="layer1">
    <path
       transform="scale(0.26458333)"
       d="M 1786.4785 -0.47265625 C 1782.6116 -0.47265625 1779.4473 -0.31980061 1779.4473 -0.13671875 C 1779.4473 0.36318258 1786.4263 9.1159236 1786.8145 9.0957031 C 1786.9986 9.0894643 1788.5542 7.2345814 1790.2715 4.9726562 C 1791.9888 2.7105257 1793.4209 0.55928284 1793.4512 0.19335938 C 1793.4944 -0.29888565 1791.6878 -0.47265625 1786.4785 -0.47265625 z M 1812.5391 -0.47265625 C 1808.6415 -0.47265625 1805.5529 -0.26799444 1805.6758 -0.01953125 C 1806.1995 1.0406195 1812.6216 9.1100642 1812.9277 9.0898438 C 1813.1127 9.0789791 1814.681 7.2229512 1816.4141 4.9648438 C 1818.1472 2.706945 1819.5806 0.5592828 1819.5957 0.19335938 C 1819.6175 -0.29888561 1817.7777 -0.47265625 1812.5391 -0.47265625 z M 1799.4629 0.015625 C 1799.3626 0.033794749 1799.2721 0.080552205 1799.1875 0.15234375 C 1798.5639 0.68141766 1781.1467 23.01064 1779.6641 25.181641 C 1779.5245 25.385828 1780.7847 27.258307 1782.4648 29.341797 L 1785.5195 33.130859 L 1782.457 37.138672 L 1779.3945 41.148438 L 1789.5078 54.142578 L 1799.6211 67.136719 L 1791.0039 78.175781 C 1786.2643 84.246821 1781.7209 90.083858 1780.9082 91.148438 L 1779.4297 93.083984 L 1782.4238 96.945312 C 1785.7533 101.23783 1785.8023 100.69084 1781.6445 105.85742 L 1779.3594 108.69727 L 1789.4844 121.70898 L 1799.6113 134.7207 L 1789.502 147.71289 L 1779.3906 160.70312 L 1782.4785 164.67969 L 1785.5664 168.6582 L 1782.4961 172.4668 C 1780.1449 175.38211 1779.5704 176.49349 1780.0508 177.20703 C 1780.396 177.71961 1784.9289 183.59253 1790.123 190.25781 C 1795.5452 197.21579 1799.3675 202.64662 1799.0977 203.01172 C 1798.8395 203.36136 1794.2802 209.22994 1788.9668 216.05273 L 1779.3066 228.45898 L 1781.6113 231.22266 C 1785.8886 236.35371 1785.844 235.87513 1782.4414 240.25781 L 1779.3965 244.17969 L 1788.873 256.38086 C 1794.0855 263.09178 1798.7229 268.90048 1799.1797 269.28711 C 1799.8524 269.85649 1801.9206 267.53454 1810.0605 257.07812 L 1820.1113 244.16797 L 1817.1875 240.3418 C 1815.5796 238.23658 1814.2656 236.38716 1814.2656 236.23242 C 1814.2656 236.07768 1815.6098 234.21535 1817.2539 232.0957 C 1820.2397 228.24633 1820.2411 228.24176 1819.0176 226.85742 C 1816.8312 224.38347 1800.2031 202.74615 1800.2031 202.375 C 1800.2031 202.17685 1803.1058 198.31048 1806.6523 193.7832 C 1810.1989 189.25613 1814.6813 183.49486 1816.6152 180.98047 L 1820.1328 176.4082 L 1817.207 172.73047 C 1815.5976 170.70733 1814.279 168.87388 1814.2715 168.65625 C 1814.2673 168.43878 1815.5903 166.56955 1817.209 164.50195 L 1820.1504 160.74219 L 1810.1504 147.9043 C 1804.1422 140.19093 1800.3047 134.74661 1800.5371 134.26562 C 1800.8752 133.56536 1805.9567 126.95593 1816.9941 112.86133 L 1820.1484 108.83203 L 1817.207 104.99805 C 1815.5889 102.88861 1814.2756 100.9896 1814.2832 100.77734 C 1814.2928 100.56511 1815.6213 98.737325 1817.2363 96.716797 L 1820.1719 93.042969 L 1817.0059 89 C 1799.3526 66.457768 1799.6913 66.936823 1800.7188 65.919922 C 1801.0847 65.557616 1805.6094 59.828779 1810.7734 53.189453 L 1820.1621 41.119141 L 1817.2129 37.351562 C 1815.5911 35.27994 1814.2639 33.40692 1814.2715 33.189453 C 1814.2756 32.971786 1815.5968 31.14067 1817.2051 29.119141 L 1820.1289 25.443359 L 1814.7324 18.472656 C 1811.765 14.639414 1807.2421 8.7906523 1804.6797 5.4746094 C 1801.3658 1.1860235 1800.1646 -0.11156325 1799.4629 0.015625 z M 1799.082 4.9199219 C 1800.101 4.9349629 1804.7638 10.544976 1814.1543 23.009766 C 1814.9522 24.06891 1815.6002 25.148135 1815.5977 25.40625 C 1815.5843 26.394787 1812.0837 30.471746 1811.6133 30.046875 C 1811.341 29.801048 1808.6278 26.367948 1805.582 22.416016 C 1802.5362 18.463882 1799.9639 15.158825 1799.8672 15.070312 C 1799.7701 14.982401 1797.0315 18.382519 1793.7812 22.626953 C 1789.85 27.760543 1787.6292 30.184969 1787.1504 29.869141 C 1786.7546 29.608029 1785.7796 28.473043 1784.9824 27.345703 L 1783.5332 25.294922 L 1791.1992 15.474609 C 1795.4155 10.073262 1798.8652 5.4730366 1798.8652 5.2519531 C 1798.8652 5.0293864 1798.9365 4.9177732 1799.082 4.9199219 z M 1799.8945 20.400391 C 1799.9958 20.483673 1802.216 23.303155 1804.8281 26.664062 C 1807.4402 30.024967 1809.5658 33.018058 1809.5469 33.316406 C 1809.5014 34.131337 1800.5573 45.479555 1799.8301 45.644531 C 1799.0413 45.823772 1789.7452 33.696254 1790.0449 32.878906 C 1790.3603 32.018919 1799.6738 20.219325 1799.8945 20.400391 z M 1799.4824 28.029297 C 1799.1511 28.19204 1798.1026 29.378889 1797.1523 30.667969 L 1795.4238 33.011719 L 1797.207 35.431641 C 1798.1879 36.762164 1799.2378 37.972268 1799.5391 38.119141 C 1799.8402 38.266996 1800.9959 37.249298 1802.1074 35.857422 C 1803.2189 34.465546 1804.1512 33.269551 1804.1738 33.201172 C 1804.3713 32.671094 1799.9516 27.798772 1799.4824 28.029297 z M 1787.4824 36.253906 C 1787.6724 36.253906 1790.5173 39.711372 1793.8047 43.9375 L 1799.7812 51.621094 L 1805.416 44.335938 C 1808.5152 40.329491 1811.2956 36.844859 1811.5957 36.591797 C 1811.8957 36.338523 1812.921 37.111792 1813.873 38.310547 C 1814.8251 39.509307 1815.5913 40.794299 1815.5762 41.166016 C 1815.5525 41.734116 1801.0467 60.775226 1800.0098 61.599609 C 1799.8197 61.750688 1796.0124 57.209359 1791.5469 51.505859 L 1783.4277 41.136719 L 1785.2812 38.695312 C 1786.3014 37.352924 1787.2927 36.253906 1787.4824 36.253906 z M 104.01172 52.908203 L 92.402344 72.898438 L 78.341797 72.804688 L 71.357422 84.9375 L 84.980469 85.675781 L 78.435547 96.945312 L 69.060547 95.841797 L 62.541016 84.462891 L 49.46875 84.462891 L 60.154297 102.66602 L 53.080078 113.16992 L 60.898438 127.64844 L 67.9375 115.92969 L 74.808594 127.64062 L 69.107422 135.99414 L 56.230469 135.62891 L 49.919922 146.44727 L 72.212891 146.44727 L 79.333984 158.20508 L 95.244141 159.02344 L 87.433594 146.44727 L 101.57812 146.44727 L 105.55273 154.80469 L 98.154297 167.18164 L 104.46484 177.54883 L 114.72852 160.18555 L 129.4668 160.32617 L 136.82031 147.68359 L 122.18164 147.58008 L 129.20898 135.68945 L 139.70312 135.78516 L 145.70898 145.99414 L 158.10742 145.76758 L 148.73828 129.50195 L 155.17383 116.61719 L 148.10352 105.31445 L 141.14258 116.30859 L 134.57422 104.9082 L 139.85156 95.384766 L 152.4707 95.505859 L 158.78125 84.236328 L 135.83398 84.322266 L 129.58203 73.394531 L 114.65039 73.203125 L 121.05469 84.376953 L 107.82617 84.425781 L 103.14258 76.931641 L 110.32227 64.404297 L 104.01172 52.908203 z M 1812.9297 58.613281 C 1812.7455 58.615693 1811.0085 60.661654 1809.0703 63.160156 L 1805.5469 67.703125 L 1809.0078 72.205078 C 1810.9109 74.680442 1812.646 76.701172 1812.8652 76.701172 C 1813.0845 76.699161 1814.8052 74.723552 1816.6875 72.310547 L 1820.1094 67.923828 L 1818.5312 65.794922 C 1817.6629 64.62393 1816.1233 62.526988 1815.1094 61.136719 C 1814.0954 59.746454 1813.1138 58.611267 1812.9297 58.613281 z M 1786.8145 58.632812 C 1786.6303 58.631407 1784.8738 60.662072 1782.9121 63.146484 L 1779.3457 67.664062 L 1782.9121 72.183594 C 1784.8738 74.669616 1786.6304 76.689453 1786.8145 76.689453 C 1786.9986 76.681607 1788.5712 74.824773 1790.3105 72.564453 C 1792.0499 70.303937 1793.4846 68.174419 1793.4922 67.832031 C 1793.5125 67.137604 1787.3417 58.632812 1786.8145 58.632812 z M 1799.4902 72.982422 C 1800.339 73.059653 1802.3018 75.331482 1807.8066 82.435547 C 1812.095 87.969864 1815.6002 92.716633 1815.5977 92.984375 C 1815.5907 93.515255 1812.3272 97.996094 1811.9473 97.996094 C 1811.8187 97.996094 1809.3711 94.941445 1806.5098 91.208984 C 1803.6484 87.476527 1800.9535 84.00246 1800.5215 83.488281 C 1799.8391 82.676167 1799.0498 83.444913 1794.5039 89.34375 C 1791.6261 93.078018 1788.9005 96.570564 1788.4453 97.105469 C 1787.6868 97.997044 1787.4404 97.874162 1785.502 95.634766 L 1783.3867 93.191406 L 1790.877 83.484375 C 1794.9964 78.145785 1798.7356 73.462417 1799.1875 73.076172 C 1799.2704 73.00531 1799.369 72.971389 1799.4902 72.982422 z M 1799.791 88.572266 C 1800.1574 88.669226 1802.5012 91.368731 1805 94.570312 C 1807.4988 97.772098 1809.543 100.6311 1809.543 100.92383 C 1809.543 101.69309 1800.5767 113.06896 1799.8281 113.25 C 1799.2769 113.38297 1797.9657 111.8193 1791.0293 102.76758 L 1789.5547 100.84375 L 1792.7363 96.890625 C 1794.4865 94.717011 1796.6398 91.917416 1797.5215 90.667969 C 1798.4032 89.418313 1799.4244 88.475699 1799.791 88.572266 z M 92.519531 94.605469 L 98.730469 94.785156 L 104.72852 103.77148 L 110.45898 95.128906 L 115.73438 95.28125 L 120.5 103.25195 L 116.73633 110.48633 L 125.10547 110.96289 L 128.12891 116.01953 L 124.25195 122.58008 L 115.63281 122.17383 L 119.76367 130.17578 L 116.41016 135.85156 L 108.98047 135.85156 L 104.95117 129.24805 L 101.05078 135.85156 L 92.519531 135.85156 L 88.908203 130.17969 L 94.144531 122.36523 L 83.345703 121.44531 L 79.894531 116.01953 L 83.826172 109.35156 L 94.523438 109.93945 L 88.529297 101.375 L 92.519531 94.605469 z M 1799.5078 95.613281 C 1799.2239 95.752693 1798.1848 96.959912 1797.1992 98.296875 L 1795.4082 100.72852 L 1797.584 103.58398 L 1799.7617 106.43945 L 1801.9746 103.68164 C 1803.1914 102.16444 1804.1956 100.88048 1804.2031 100.82617 C 1804.2944 100.30555 1799.8962 95.422151 1799.5078 95.613281 z M 1811.752 104.14062 C 1812.1566 104.13543 1813.04 104.85929 1813.873 105.9082 C 1814.8251 107.10696 1815.5994 108.39196 1815.5918 108.76367 C 1815.5847 109.13543 1812.0751 113.94631 1807.793 119.45508 C 1801.5175 127.52813 1799.8487 129.33481 1799.1875 128.76953 C 1798.7363 128.38389 1794.9964 123.69991 1790.877 118.36133 L 1783.3867 108.6543 L 1785.502 106.21094 C 1787.4404 103.97134 1787.6868 103.84866 1788.4453 104.74023 C 1788.9005 105.27534 1791.6269 108.76869 1794.5039 112.50195 L 1799.7344 119.28906 L 1805.4043 111.96875 C 1808.523 107.94259 1811.3157 104.44253 1811.6094 104.18945 C 1811.6461 104.15779 1811.6941 104.14137 1811.752 104.14062 z M 1812.8516 126.08984 L 1809.2051 130.70703 L 1805.5605 135.32227 L 1809.0117 139.8125 C 1810.9103 142.28203 1812.6437 144.29889 1812.8633 144.29688 C 1813.0825 144.29447 1814.8067 142.31906 1816.6953 139.90625 L 1820.1289 135.51953 L 1818.748 133.65625 C 1817.9889 132.63171 1816.3516 130.5097 1815.1094 128.94141 L 1812.8516 126.08984 z M 1786.8789 126.50195 C 1786.6413 126.38528 1784.8639 128.32243 1782.9297 130.80664 L 1779.4141 135.32422 L 1782.8242 139.8125 C 1784.7003 142.28123 1786.4416 144.30082 1786.6934 144.29883 C 1786.9448 144.29682 1788.6895 142.31925 1790.5703 139.90625 C 1793.8518 135.69622 1793.9467 135.46626 1792.9531 134.18945 C 1792.3836 133.4576 1790.8822 131.47651 1789.6152 129.78711 C 1788.3484 128.09771 1787.117 126.61866 1786.8789 126.50195 z M 1800.1992 140.39648 C 1800.4836 140.6421 1804.0661 145.19853 1808.1602 150.52344 C 1812.2542 155.84854 1815.5871 160.51892 1815.5645 160.90234 C 1815.5244 161.61227 1812.4647 165.5918 1811.959 165.5918 C 1811.8064 165.5918 1810.3353 163.85454 1808.6895 161.73242 C 1807.0435 159.60991 1804.3641 156.15514 1802.7363 154.05273 L 1799.7773 150.23047 L 1793.8027 157.91016 C 1790.5164 162.13487 1787.6738 165.57422 1787.4863 165.57422 C 1787.2991 165.56497 1786.3116 164.46486 1785.291 163.12891 L 1783.4355 160.69922 L 1791.5586 150.32422 C 1796.0266 144.6177 1799.9146 140.15089 1800.1992 140.39648 z M 1799.8281 156.20117 C 1800.1741 156.27963 1802.5012 158.96444 1805 162.16602 C 1807.4988 165.3676 1809.553 168.23065 1809.5605 168.52734 C 1809.5853 169.30928 1800.6641 180.64853 1799.8691 180.8457 C 1799.2806 180.99155 1790.6043 170.49987 1790.041 168.96094 C 1789.7439 168.14923 1799.0449 156.02214 1799.8281 156.20117 z M 1799.5625 163.45703 C 1798.8726 163.5374 1798.1743 164.44064 1796.9551 166.22852 L 1795.3789 168.53906 L 1797.5488 171.31445 L 1799.7207 174.08984 L 1801.9531 171.30469 C 1803.1815 169.7726 1804.1956 168.47619 1804.2031 168.42188 C 1804.2125 168.36816 1803.2729 167.10976 1802.1133 165.62695 C 1800.9335 164.1185 1800.2524 163.37666 1799.5625 163.45703 z M 226.50781 164.29492 L 247.58789 209.19727 L 267.63867 164.81055 L 226.50781 164.29492 z M 1811.7559 171.75 C 1812.1469 171.76555 1813.0253 172.56638 1813.8633 173.70312 C 1814.821 175.00206 1815.6052 176.28361 1815.5977 176.55078 C 1815.5868 177.27117 1800.4321 196.67157 1799.7676 196.81641 C 1799.4543 196.88441 1795.6821 192.34287 1791.3848 186.72266 L 1783.5723 176.50391 L 1785.002 174.47656 C 1785.7881 173.36209 1786.7546 172.23769 1787.1504 171.97656 C 1787.6292 171.66073 1789.8481 174.08515 1793.7793 179.21875 C 1797.0296 183.46317 1799.7704 186.86391 1799.8672 186.77539 C 1799.9643 186.68748 1802.5342 183.38162 1805.5801 179.42969 C 1808.6259 175.47775 1811.3432 172.04159 1811.6191 171.79297 C 1811.6536 171.76186 1811.7 171.74778 1811.7559 171.75 z M 189.49219 184.86133 L 205.94336 229.24805 L 228.39453 185.20312 C 228.39453 185.20313 190.8632 184.86133 189.49219 184.86133 z M 233.02148 190.85938 L 212.62695 235.58789 L 253.24414 235.93164 L 233.02148 190.85938 z M 1812.8418 193.74609 L 1809.1973 198.36133 L 1805.5527 202.97461 L 1809.0078 207.45312 C 1810.9082 209.91642 1812.7203 211.86576 1813.0352 211.78125 C 1813.35 211.69797 1815.0724 209.71404 1816.8613 207.37305 L 1820.1133 203.11523 L 1818.7266 201.25391 C 1817.9637 200.22936 1816.327 198.12037 1815.0898 196.56836 L 1812.8418 193.74609 z M 1786.916 194.28516 C 1786.3431 194.20833 1785.5409 195.20531 1783.082 198.31836 C 1780.359 201.766 1779.5993 203.1439 1780.0527 203.81641 C 1780.3856 204.30987 1782.0095 206.45598 1783.6621 208.58594 L 1786.668 212.45703 L 1790.3164 207.78711 C 1792.3233 205.21798 1793.8059 202.87667 1793.6094 202.58398 C 1793.3009 202.12352 1791.7504 200.12563 1787.6895 194.95703 C 1787.3899 194.57582 1787.1764 194.32008 1786.916 194.28516 z M 1799.4883 207.92773 C 1799.7724 207.78812 1803.515 212.22394 1807.8047 217.7832 C 1812.0945 223.34247 1815.5871 228.18372 1815.5645 228.54297 C 1815.523 229.22972 1812.4423 233.1875 1811.9492 233.1875 C 1811.7918 233.1875 1809.0572 229.83493 1805.8711 225.73633 C 1802.6851 221.63752 1799.8219 218.40953 1799.5078 218.56445 C 1799.1937 218.71874 1797.1644 221.17477 1795 224.02148 C 1789.8761 230.76008 1787.894 233.17408 1787.4766 233.18164 C 1787.2898 233.18528 1786.3173 232.11021 1785.3164 230.79297 L 1783.4961 228.39844 L 1789.6094 220.54688 C 1792.9715 216.22881 1796.4541 211.68086 1797.3477 210.43945 C 1798.2411 209.19805 1799.2041 208.06652 1799.4883 207.92773 z M 101.61719 218.51172 A 26.179615 26.179615 0 0 0 75.6875 244.69141 A 26.179615 26.179615 0 0 0 101.86719 270.86914 A 26.179615 26.179615 0 0 0 128.04688 244.69141 A 26.179615 26.179615 0 0 0 101.86719 218.51172 A 26.179615 26.179615 0 0 0 101.61719 218.51172 z M 1799.4707 224.08398 C 1800.1833 223.94597 1801.3842 225.23603 1804.8086 229.62305 C 1807.4322 232.98407 1809.5578 236.05915 1809.5352 236.45703 C 1809.512 236.85492 1808.4892 238.3781 1807.2617 239.8418 C 1806.0343 241.3055 1803.8397 244.02175 1802.3848 245.87695 L 1799.7402 249.25 L 1794.668 242.76172 L 1789.5977 236.27344 L 1793.9688 230.60547 C 1796.3737 227.48858 1798.7231 224.61709 1799.1895 224.22461 C 1799.2764 224.15146 1799.3689 224.1037 1799.4707 224.08398 z M 1799.7246 230.46484 L 1797.6191 233.07031 C 1796.4622 234.50355 1795.5156 235.83194 1795.5156 236.02148 C 1795.5156 236.21101 1796.4663 237.59239 1797.627 239.0918 L 1799.7363 241.81836 L 1801.9492 239.0293 C 1804.362 235.98754 1804.3487 235.8817 1801 231.95898 L 1799.7246 230.46484 z M 1811.9785 239.04297 C 1812.1006 239.04297 1812.9661 240.08169 1813.9023 241.35156 C 1814.8385 242.62144 1815.6035 243.89477 1815.6035 244.18164 C 1815.6035 244.92365 1800.4803 264.25802 1799.7793 264.41211 C 1799.46 264.48229 1795.6746 259.95542 1791.3672 254.35352 L 1783.5352 244.16797 L 1785.1543 242.00977 C 1786.0449 240.82256 1787.0569 239.77705 1787.4023 239.68555 C 1787.7475 239.5941 1790.656 242.89682 1793.8652 247.02539 L 1799.6992 254.53125 L 1801.1816 252.77539 C 1801.997 251.80934 1804.7108 248.32457 1807.2109 245.03125 C 1809.7111 241.7379 1811.8568 239.04297 1811.9785 239.04297 z M 1786.6602 261.37891 L 1783.6484 265.24805 C 1782.0542 267.29564 1780.6578 269.18895 1780.3887 269.66016 C 1779.8419 269.70761 1779.4473 269.75898 1779.4473 269.81641 C 1779.4473 270.3163 1786.4263 279.06886 1786.8145 279.04883 C 1786.9986 279.04259 1788.5542 277.1877 1790.2715 274.92578 C 1791.9888 272.66366 1793.4209 270.51242 1793.4512 270.14648 C 1793.4616 270.02788 1793.3588 269.92928 1793.1328 269.8457 C 1793.1238 269.82364 1793.132 269.80481 1793.1152 269.78125 C 1792.8543 269.41534 1791.2949 267.37568 1789.6504 265.24805 L 1786.6602 261.37891 z M 1812.9238 261.92969 C 1812.4572 261.92969 1807.4017 268.06383 1806.4141 269.73242 C 1805.9507 269.79392 1805.6395 269.86011 1805.6758 269.93359 C 1806.1995 270.99375 1812.6216 279.063 1812.9277 279.04297 C 1813.1127 279.03211 1814.681 277.17607 1816.4141 274.91797 C 1818.1472 272.66006 1819.5806 270.51242 1819.5957 270.14648 C 1819.6006 270.03645 1819.4952 269.945 1819.2969 269.86523 C 1816.6716 266.10663 1813.3232 261.92969 1812.9238 261.92969 z M 1799.4629 269.96875 C 1799.3626 269.98692 1799.2721 270.03368 1799.1875 270.10547 C 1798.5639 270.63453 1781.1467 292.96377 1779.6641 295.13477 C 1779.5245 295.33895 1780.7847 297.21144 1782.4648 299.29492 L 1785.5195 303.08398 L 1782.457 307.0918 L 1779.3945 311.10156 L 1789.5078 324.0957 L 1799.6211 337.08984 L 1791.0039 348.12891 C 1786.2643 354.19995 1781.7209 360.03894 1780.9082 361.10352 L 1779.4297 363.03906 L 1782.4238 366.89844 C 1785.7533 371.19095 1785.8023 370.64399 1781.6445 375.81055 L 1779.3594 378.65234 L 1789.4844 391.66406 L 1799.6113 404.67578 L 1789.502 417.66602 L 1779.3906 430.65625 L 1782.4785 434.63281 L 1785.5664 438.61133 L 1782.4961 442.41992 C 1780.1449 445.33522 1779.5704 446.44666 1780.0508 447.16016 C 1780.396 447.6727 1784.9289 453.54567 1790.123 460.21094 C 1795.5452 467.1689 1799.3675 472.60169 1799.0977 472.9668 C 1798.8395 473.3164 1794.2802 479.18501 1788.9668 486.00781 L 1779.3066 498.41211 L 1781.6113 501.17578 C 1785.8886 506.30683 1785.844 505.82827 1782.4414 510.21094 L 1779.3965 514.13281 L 1788.873 526.33594 C 1794.0855 533.04687 1798.7229 538.85359 1799.1797 539.24023 C 1799.8524 539.80958 1801.9206 537.48961 1810.0605 527.0332 L 1820.1113 514.12305 L 1817.1875 510.29492 C 1815.5796 508.18973 1814.2656 506.34013 1814.2656 506.18555 C 1814.2656 506.03081 1815.6098 504.17042 1817.2539 502.05078 C 1820.2397 498.20145 1820.2411 498.19487 1819.0176 496.81055 C 1816.8312 494.33662 1800.2031 472.69927 1800.2031 472.32812 C 1800.2031 472.12996 1803.1058 468.2636 1806.6523 463.73633 C 1810.1989 459.20929 1814.6813 453.44796 1816.6152 450.93359 L 1820.1328 446.36133 L 1817.207 442.68359 C 1815.5976 440.66049 1814.279 438.82708 1814.2715 438.60938 C 1814.2673 438.39194 1815.5903 436.52267 1817.209 434.45508 L 1820.1504 430.69531 L 1810.1504 417.85742 C 1804.1422 410.14401 1800.3047 404.69977 1800.5371 404.21875 C 1800.8752 403.51848 1805.9567 396.91102 1816.9941 382.81641 L 1820.1484 378.78711 L 1817.207 374.95117 C 1815.5889 372.84174 1814.2756 370.9428 1814.2832 370.73047 C 1814.2928 370.51823 1815.6213 368.69043 1817.2363 366.66992 L 1820.1719 362.99609 L 1817.0059 358.95312 C 1799.3526 336.41088 1799.6913 336.89188 1800.7188 335.875 C 1801.0847 335.51269 1805.6094 329.78386 1810.7734 323.14453 L 1820.1621 311.07227 L 1817.2129 307.30469 C 1815.5911 305.23305 1814.2639 303.36001 1814.2715 303.14258 C 1814.2756 302.9249 1815.5968 301.09379 1817.2051 299.07227 L 1820.1289 295.39648 L 1814.7324 288.42773 C 1811.765 284.59449 1807.2421 278.74378 1804.6797 275.42773 C 1801.3658 271.13914 1800.1646 269.84156 1799.4629 269.96875 z M 1799.082 274.87305 C 1800.101 274.88809 1804.7638 280.50005 1814.1543 292.96484 C 1814.9522 294.02399 1815.6002 295.10138 1815.5977 295.35938 C 1815.5843 296.3479 1812.0837 300.42681 1811.6133 300.00195 C 1811.341 299.75612 1808.6278 296.32108 1805.582 292.36914 C 1802.5362 288.417 1799.9639 285.11192 1799.8672 285.02344 C 1799.7701 284.93553 1797.0315 288.3376 1793.7812 292.58203 C 1789.85 297.71562 1787.6292 300.14007 1787.1504 299.82422 C 1786.7546 299.56311 1785.7796 298.42619 1784.9824 297.29883 L 1783.5332 295.25 L 1791.1992 285.42773 C 1795.4155 280.02639 1798.8652 275.4281 1798.8652 275.20703 C 1798.8652 274.98446 1798.9365 274.8709 1799.082 274.87305 z M 1799.8945 290.35547 C 1799.9958 290.43875 1802.216 293.25627 1804.8281 296.61719 C 1807.4402 299.97809 1809.5658 302.97121 1809.5469 303.26953 C 1809.5014 304.08446 1800.5573 315.4326 1799.8301 315.59766 C 1799.0413 315.77688 1789.7452 303.6494 1790.0449 302.83203 C 1790.3603 301.97206 1799.6738 290.17443 1799.8945 290.35547 z M 200.95117 292.31055 L 184.91406 308.3457 L 200.54883 323.98242 L 216.58594 307.94531 L 200.95117 292.31055 z M 1799.4824 297.98242 C 1799.1511 298.14517 1798.1026 299.33397 1797.1523 300.62305 L 1795.4238 302.9668 L 1797.207 305.38477 C 1798.1879 306.71529 1799.2378 307.92551 1799.5391 308.07227 C 1799.8402 308.22013 1800.9959 307.20243 1802.1074 305.81055 C 1803.2189 304.41868 1804.1512 303.22256 1804.1738 303.1543 C 1804.3713 302.6242 1799.9516 297.7518 1799.4824 297.98242 z M 1787.4824 306.20703 C 1787.6724 306.20703 1790.5173 309.66451 1793.8047 313.89062 L 1799.7812 321.57422 L 1805.416 314.29102 C 1808.5152 310.28457 1811.2956 306.79815 1811.5957 306.54492 C 1811.8957 306.29163 1812.921 307.06686 1813.873 308.26562 C 1814.8251 309.46438 1815.5913 310.74938 1815.5762 311.12109 C 1815.5525 311.6892 1801.0467 330.73032 1800.0098 331.55469 C 1799.8197 331.70576 1796.0124 327.16247 1791.5469 321.45898 L 1783.4277 311.08984 L 1785.2812 308.64844 C 1786.3014 307.30606 1787.2927 306.20703 1787.4824 306.20703 z M 218.39062 309.34961 L 202.35352 325.38477 L 217.98828 341.02148 L 234.02539 324.98438 L 218.39062 309.34961 z M 182.9082 310.15039 L 166.87305 326.1875 L 182.50781 341.82227 L 198.54492 325.78711 L 182.9082 310.15039 z M 200.54883 327.39062 L 184.51172 343.42578 L 200.14844 359.0625 L 216.18555 343.02539 L 200.54883 327.39062 z M 1812.9297 328.56836 C 1812.7455 328.57077 1811.0085 330.61671 1809.0703 333.11523 L 1805.5469 337.65625 L 1809.0078 342.1582 C 1810.9109 344.63357 1812.646 346.6543 1812.8652 346.6543 C 1813.0845 346.65231 1814.8052 344.67667 1816.6875 342.26367 L 1820.1094 337.87695 L 1818.5312 335.74805 C 1817.6629 334.57704 1816.1233 332.48208 1815.1094 331.0918 C 1814.0954 329.70155 1813.1138 328.56635 1812.9297 328.56836 z M 1786.8145 328.58594 C 1786.6303 328.58453 1784.8738 330.61519 1782.9121 333.09961 L 1779.3457 337.61719 L 1782.9121 342.13672 C 1784.8738 344.62276 1786.6304 346.64258 1786.8145 346.64258 C 1786.9986 346.63473 1788.5712 344.77987 1790.3105 342.51953 C 1792.0499 340.25902 1793.4846 338.1295 1793.4922 337.78711 C 1793.5125 337.09267 1787.3417 328.58594 1786.8145 328.58594 z M 1799.4902 342.93555 C 1800.339 343.0128 1802.3018 345.28462 1807.8066 352.38867 C 1812.095 357.92297 1815.6002 362.66987 1815.5977 362.9375 C 1815.5907 363.46837 1812.3272 367.94922 1811.9473 367.94922 C 1811.8187 367.94922 1809.3711 364.89458 1806.5098 361.16211 C 1803.6484 357.42964 1800.9535 353.95559 1800.5215 353.44141 C 1799.8391 352.6293 1799.0498 353.39802 1794.5039 359.29688 C 1791.6261 363.03115 1788.9005 366.52369 1788.4453 367.05859 C 1787.6868 367.95014 1787.4404 367.82729 1785.502 365.58789 L 1783.3867 363.14453 L 1790.877 353.4375 C 1794.9964 348.09893 1798.7356 343.41556 1799.1875 343.0293 C 1799.2704 342.95844 1799.369 342.92451 1799.4902 342.93555 z M 117.00391 356.72266 L 111.94531 365.43359 L 105.81836 365.39258 L 102.77539 370.67969 L 108.71094 371 L 105.85938 375.91016 L 101.77539 375.42969 L 98.933594 370.4707 L 93.238281 370.4707 L 97.894531 378.40234 L 94.8125 382.97852 L 98.21875 389.28711 L 101.28516 384.18164 L 104.2793 389.28516 L 101.79492 392.92383 L 96.185547 392.76562 L 93.435547 397.47852 L 103.14844 397.47852 L 106.25 402.60156 L 113.18359 402.95898 L 109.7793 397.47852 L 115.94336 397.47852 L 117.67383 401.11914 L 114.45117 406.51367 L 117.19922 411.0293 L 121.67188 403.46484 L 128.09375 403.52539 L 131.29883 398.01758 L 124.91992 397.97266 L 127.98047 392.79102 L 132.55469 392.83203 L 135.16992 397.2793 L 140.57227 397.18164 L 136.49023 390.09375 L 139.29492 384.48047 L 136.21484 379.55664 L 133.18164 384.3457 L 130.32031 379.37891 L 132.61914 375.23047 L 138.11719 375.2832 L 140.86719 370.37305 L 130.86914 370.4082 L 128.14453 365.64648 L 121.63867 365.5625 L 124.42773 370.43164 L 118.66406 370.45312 L 116.625 367.1875 L 119.75195 361.73047 L 117.00391 356.72266 z M 1799.791 358.52539 C 1800.1574 358.62237 1802.5012 361.32187 1805 364.52344 C 1807.4988 367.72523 1809.543 370.58434 1809.543 370.87695 C 1809.543 371.64623 1800.5767 383.02209 1799.8281 383.20312 C 1799.2769 383.33613 1797.9657 381.77242 1791.0293 372.7207 L 1789.5547 370.79688 L 1792.7363 366.8457 C 1794.4865 364.67209 1796.6398 361.87055 1797.5215 360.62109 C 1798.4032 359.37146 1799.4244 358.42886 1799.791 358.52539 z M 1799.5078 365.56641 C 1799.2239 365.70581 1798.1848 366.91499 1797.1992 368.25195 L 1795.4082 370.68164 L 1797.584 373.53711 L 1799.7617 376.39453 L 1801.9746 373.63477 C 1803.1914 372.11755 1804.1956 370.83372 1804.2031 370.7793 C 1804.2944 370.25868 1799.8962 365.37512 1799.5078 365.56641 z M 1811.752 374.09375 C 1812.1566 374.08857 1813.04 374.81242 1813.873 375.86133 C 1814.8251 377.06006 1815.5994 378.34489 1815.5918 378.7168 C 1815.5847 379.08855 1812.0751 383.89939 1807.793 389.4082 C 1801.5175 397.48124 1799.8487 399.28792 1799.1875 398.72266 C 1798.7363 398.33696 1794.9964 393.65304 1790.877 388.31445 L 1783.3867 378.60938 L 1785.502 376.16602 C 1787.4404 373.92641 1787.6868 373.80178 1788.4453 374.69336 C 1788.9005 375.22845 1791.6269 378.72177 1794.5039 382.45508 L 1799.7344 389.24219 L 1805.4043 381.92188 C 1808.523 377.89569 1811.3157 374.39581 1811.6094 374.14258 C 1811.6461 374.11092 1811.6941 374.09449 1811.752 374.09375 z M 111.99609 374.89062 L 114.70312 374.96875 L 117.31641 378.88281 L 119.8125 375.11719 L 122.11133 375.18359 L 124.1875 378.6582 L 122.54688 381.80859 L 126.19336 382.01562 L 127.50977 384.2207 L 125.82227 387.07812 L 122.06641 386.90234 L 123.86523 390.38867 L 122.4043 392.86133 L 119.16797 392.86133 L 117.41211 389.98438 L 115.71289 392.86133 L 111.99609 392.86133 L 110.42188 390.39062 L 112.70508 386.98438 L 108 386.58398 L 106.49609 384.2207 L 108.20898 381.31445 L 112.86914 381.57031 L 110.25781 377.83984 L 111.99609 374.89062 z M 1812.8516 396.04492 L 1809.2051 400.66016 L 1805.5605 405.27539 L 1809.0117 409.76562 C 1810.9103 412.23513 1812.6437 414.25204 1812.8633 414.25 C 1813.0825 414.24762 1814.8067 412.27223 1816.6953 409.85938 L 1820.1289 405.47266 L 1818.748 403.60938 C 1817.9889 402.58482 1816.3516 400.46484 1815.1094 398.89648 L 1812.8516 396.04492 z M 1786.8789 396.45703 C 1786.6413 396.34036 1784.8639 398.27751 1782.9297 400.76172 L 1779.4141 405.27734 L 1782.8242 409.76758 C 1784.7003 412.23629 1786.4416 414.25396 1786.6934 414.25195 C 1786.9448 414.24991 1788.6895 412.27437 1790.5703 409.86133 C 1793.8518 405.65131 1793.9467 405.41938 1792.9531 404.14258 C 1792.3836 403.41071 1790.8822 401.42961 1789.6152 399.74023 C 1788.3484 398.05079 1787.117 396.57382 1786.8789 396.45703 z M 1800.1992 410.34961 C 1800.4836 410.59524 1804.0661 415.15358 1808.1602 420.47852 C 1812.2542 425.80361 1815.5871 430.47403 1815.5645 430.85742 C 1815.5244 431.56737 1812.4647 435.54492 1811.959 435.54492 C 1811.8064 435.54492 1810.3353 433.80963 1808.6895 431.6875 C 1807.0435 429.56496 1804.3641 426.10826 1802.7363 424.00586 L 1799.7773 420.18359 L 1793.8027 427.86523 C 1790.5164 432.08999 1787.6738 435.5293 1787.4863 435.5293 C 1787.2991 435.52004 1786.3116 434.41798 1785.291 433.08203 L 1783.4355 430.6543 L 1791.5586 420.27734 C 1796.0266 414.57079 1799.9146 410.10394 1800.1992 410.34961 z M 170.11719 425.81055 L 180.38281 448.69336 L 190.73633 425.98438 L 170.11719 425.81055 z M 1799.8281 426.15625 C 1800.1741 426.23471 1802.5012 428.91758 1805 432.11914 C 1807.4988 435.32074 1809.553 438.18378 1809.5605 438.48047 C 1809.5853 439.26238 1800.6641 450.60191 1799.8691 450.79883 C 1799.2806 450.94468 1790.6043 440.45297 1790.041 438.91406 C 1789.7439 438.10237 1799.0449 425.97748 1799.8281 426.15625 z M 194.13086 429.20508 L 182.73242 451.56445 C 182.73242 451.56445 201.78638 451.73828 202.48242 451.73828 L 194.13086 429.20508 z M 1799.5625 433.41016 C 1798.8726 433.49052 1798.1743 434.39375 1796.9551 436.18164 L 1795.3789 438.49219 L 1797.5488 441.26758 L 1799.7207 444.04297 L 1801.9531 441.25781 C 1803.1815 439.72571 1804.1956 438.42905 1804.2031 438.375 C 1804.2125 438.32133 1803.2729 437.06485 1802.1133 435.58203 C 1800.9335 434.07358 1800.2524 433.32979 1799.5625 433.41016 z M 172.98828 439.38281 L 162.80859 461.91797 L 183.68945 462.17773 L 172.98828 439.38281 z M 1811.7559 441.70312 C 1812.1469 441.71867 1813.0253 442.51947 1813.8633 443.65625 C 1814.821 444.9552 1815.6052 446.23669 1815.5977 446.50391 C 1815.5868 447.22432 1800.4321 466.62673 1799.7676 466.77148 C 1799.4543 466.83948 1795.6821 462.29598 1791.3848 456.67578 L 1783.5723 446.45703 L 1785.002 444.43164 C 1785.7881 443.31713 1786.7546 442.19047 1787.1504 441.92969 C 1787.6292 441.61383 1789.8481 444.03829 1793.7793 449.17188 C 1797.0296 453.41632 1799.7704 456.81696 1799.8672 456.72852 C 1799.9643 456.64064 1802.5342 453.33668 1805.5801 449.38477 C 1808.6259 445.43282 1811.3432 441.99479 1811.6191 441.74609 C 1811.6536 441.71499 1811.7 441.7009 1811.7559 441.70312 z M 1812.8418 463.70117 L 1809.1973 468.31445 L 1805.5527 472.92773 L 1809.0078 477.40625 C 1810.9082 479.86952 1812.7203 481.81866 1813.0352 481.73438 C 1813.35 481.65111 1815.0724 479.66714 1816.8613 477.32617 L 1820.1133 473.07031 L 1818.7266 471.20703 C 1817.9637 470.18251 1816.327 468.07355 1815.0898 466.52148 L 1812.8418 463.70117 z M 1786.916 464.23828 C 1786.3431 464.16148 1785.5409 465.15844 1783.082 468.27148 C 1780.359 471.71913 1779.5993 473.09704 1780.0527 473.76953 C 1780.3856 474.26302 1782.0095 476.40907 1783.6621 478.53906 L 1786.668 482.41211 L 1790.3164 477.74023 C 1792.3233 475.17106 1793.8059 472.82964 1793.6094 472.53711 C 1793.3009 472.07661 1791.7504 470.07877 1787.6895 464.91016 C 1787.3899 464.52896 1787.1764 464.27319 1786.916 464.23828 z M 1799.4883 477.88281 C 1799.7724 477.7432 1803.515 482.17706 1807.8047 487.73633 C 1812.0945 493.29556 1815.5871 498.13666 1815.5645 498.49609 C 1815.523 499.1828 1812.4423 503.14258 1811.9492 503.14258 C 1811.7918 503.14258 1809.0572 499.78812 1805.8711 495.68945 C 1802.6851 491.59063 1799.8219 488.36262 1799.5078 488.51758 C 1799.1937 488.6719 1797.1644 491.12791 1795 493.97461 C 1789.8761 500.7132 1787.894 503.12343 1787.4766 503.13477 C 1787.2898 503.13843 1786.3173 502.06525 1785.3164 500.74805 L 1783.4961 498.35156 L 1789.6094 490.50195 C 1792.9715 486.18396 1796.4541 481.634 1797.3477 480.39258 C 1798.2411 479.15119 1799.2041 478.0219 1799.4883 477.88281 z M 1799.4707 494.03711 C 1800.1833 493.89911 1801.3842 495.18916 1804.8086 499.57617 C 1807.4322 502.93719 1809.5578 506.01229 1809.5352 506.41016 C 1809.512 506.80803 1808.4892 508.33126 1807.2617 509.79492 C 1806.0343 511.25866 1803.8397 513.9749 1802.3848 515.83008 L 1799.7402 519.20312 L 1794.668 512.71484 L 1789.5977 506.22656 L 1793.9688 500.55859 C 1796.3737 497.44173 1798.7231 494.57028 1799.1895 494.17773 C 1799.2764 494.10459 1799.3689 494.05682 1799.4707 494.03711 z M 1799.7246 500.41797 L 1797.6191 503.02539 C 1796.4622 504.45859 1795.5156 505.78526 1795.5156 505.97461 C 1795.5156 506.16415 1796.4663 507.54555 1797.627 509.04492 L 1799.7363 511.77148 L 1801.9492 508.98242 C 1804.362 505.94066 1804.3487 505.83676 1801 501.91406 L 1799.7246 500.41797 z M 1811.9785 508.99609 C 1812.1006 508.99609 1812.9661 510.03672 1813.9023 511.30664 C 1814.8385 512.57652 1815.6035 513.84985 1815.6035 514.13672 C 1815.6035 514.87875 1800.4803 534.21141 1799.7793 534.36523 C 1799.46 534.43542 1795.6746 529.90854 1791.3672 524.30664 L 1783.5352 514.12305 L 1785.1543 511.96289 C 1786.0449 510.77567 1787.0569 509.73014 1787.4023 509.63867 C 1787.7475 509.54721 1790.656 512.84995 1793.8652 516.97852 L 1799.6992 524.48633 L 1801.1816 522.72852 C 1801.997 521.76243 1804.7108 518.2777 1807.2109 514.98438 C 1809.7111 511.69101 1811.8568 508.99609 1811.9785 508.99609 z M 151.50391 519.07227 C 151.50391 519.07227 149.10156 520.27382 149.10156 521.77539 L 148.80078 544.29883 L 152.70508 547.00391 C 152.70508 547.00391 151.80425 520.87423 151.50391 519.07227 z M 134.74414 520.37695 C 134.74414 520.37695 130.53874 520.376 136.8457 523.67969 C 143.15266 526.9833 142.85245 535.09241 139.54883 538.0957 C 136.24515 541.09903 132.94125 536.29327 134.14258 533.89062 C 135.34389 531.48794 139.24869 532.08972 138.34766 529.38672 C 137.44668 526.68375 133.24068 529.68701 129.63672 532.08984 C 126.03275 534.49257 129.33798 548.90907 139.84961 541.70117 C 150.36117 534.4932 141.95207 522.47928 134.74414 520.37695 z M 165.31836 520.37695 C 158.11042 522.47928 149.70133 534.4932 160.21289 541.70117 C 170.72452 548.90907 174.0278 534.49257 170.42383 532.08984 C 166.81986 529.68727 162.61582 526.68375 161.71484 529.38672 C 160.81386 532.08972 164.7186 531.48794 165.91992 533.89062 C 167.12118 536.29327 163.8173 541.09903 160.51367 538.0957 C 157.21005 535.09241 156.90984 526.9833 163.2168 523.67969 C 169.52376 520.376 165.31836 520.37695 165.31836 520.37695 z M 1786.6602 531.33203 L 1783.6484 535.20117 C 1781.993 537.32734 1780.4901 539.36449 1780.3066 539.73242 C 1779.8032 539.77838 1779.4473 539.82986 1779.4473 539.88477 C 1779.4473 540.38468 1786.4263 549.13986 1786.8145 549.11719 C 1786.9986 549.11099 1788.5542 547.25604 1790.2715 544.99414 C 1791.9888 542.73198 1793.4209 540.58108 1793.4512 540.21484 C 1793.4612 540.09995 1793.3594 540.00578 1793.1484 539.92383 C 1793.1713 539.86658 1793.1653 539.80461 1793.1152 539.73438 C 1792.8543 539.36848 1791.2949 537.32882 1789.6504 535.20117 L 1786.6602 531.33203 z M 1812.9238 531.88281 C 1812.4457 531.88281 1807.143 538.33107 1806.3438 539.80664 C 1805.9166 539.86624 1805.6409 539.93152 1805.6758 540.00195 C 1806.1995 541.06211 1812.6216 549.13401 1812.9277 549.11133 C 1813.1127 549.10041 1814.681 547.24441 1816.4141 544.98633 C 1818.1472 542.72848 1819.5806 540.5807 1819.5957 540.21484 C 1819.5993 540.13397 1819.5314 540.06428 1819.4277 540 C 1816.785 536.19594 1813.3296 531.88281 1812.9238 531.88281 z M 1799.4629 540.03711 C 1799.3626 540.05528 1799.2721 540.10204 1799.1875 540.17383 C 1798.5639 540.70292 1781.1467 563.03213 1779.6641 565.20312 C 1779.5245 565.40726 1780.7847 567.27982 1782.4648 569.36328 L 1785.5195 573.15234 L 1782.457 577.16016 L 1779.3945 581.16992 L 1789.5078 594.16406 L 1799.6211 607.1582 L 1791.0039 618.19727 C 1786.2643 624.26832 1781.7209 630.10534 1780.9082 631.16992 L 1779.4297 633.10547 L 1782.4238 636.9668 C 1785.7533 641.25928 1785.8023 640.71237 1781.6445 645.87891 L 1779.3594 648.71875 L 1789.4844 661.73047 L 1799.6113 674.74219 L 1789.502 687.73438 L 1779.3906 700.72461 L 1782.4785 704.70117 L 1785.5664 708.67969 L 1782.4961 712.48828 C 1780.1449 715.40362 1779.5704 716.51494 1780.0508 717.22852 C 1780.396 717.74106 1784.9289 723.61402 1790.123 730.2793 C 1795.5452 737.23726 1799.3675 742.6681 1799.0977 743.0332 C 1798.8395 743.38281 1794.2802 749.25138 1788.9668 756.07422 L 1779.3066 768.48047 L 1781.6113 771.24414 C 1785.8886 776.37519 1785.844 775.89663 1782.4414 780.2793 L 1779.3965 784.20117 L 1788.873 796.40234 C 1794.0855 803.11331 1798.7229 808.92199 1799.1797 809.30859 C 1799.8524 809.87798 1801.9206 807.55605 1810.0605 797.09961 L 1820.1113 784.18945 L 1817.1875 780.36328 C 1815.5796 778.25801 1814.2656 776.40849 1814.2656 776.25391 C 1814.2656 776.09917 1815.6098 774.23881 1817.2539 772.11914 C 1820.2397 768.26973 1820.2411 768.26331 1819.0176 766.87891 C 1816.8312 764.40502 1800.2031 742.76763 1800.2031 742.39648 C 1800.2031 742.19836 1803.1058 738.33196 1806.6523 733.80469 C 1810.1989 729.27761 1814.6813 723.51636 1816.6152 721.00195 L 1820.1328 716.42969 L 1817.207 712.75195 C 1815.5976 710.72885 1814.279 708.89506 1814.2715 708.67773 C 1814.2673 708.4603 1815.5903 706.59107 1817.209 704.52344 L 1820.1504 700.76367 L 1810.1504 687.92578 C 1804.1422 680.21241 1800.3047 674.76809 1800.5371 674.28711 C 1800.8752 673.58676 1805.9567 666.97743 1816.9941 652.88281 L 1820.1484 648.85352 L 1817.207 645.01953 C 1815.5889 642.9101 1814.2756 641.01162 1814.2832 640.79883 C 1814.2928 640.58657 1815.6213 638.75882 1817.2363 636.73828 L 1820.1719 633.06445 L 1817.0059 629.02148 C 1799.3526 606.47925 1799.6913 606.95833 1800.7188 605.94141 C 1801.0847 605.5791 1805.6094 599.85024 1810.7734 593.21094 L 1820.1621 581.14062 L 1817.2129 577.37305 C 1815.5911 575.30145 1814.2639 573.42864 1814.2715 573.21094 C 1814.2756 572.99327 1815.5968 571.16214 1817.2051 569.14062 L 1820.1289 565.46484 L 1814.7324 558.49414 C 1811.765 554.66094 1807.2421 548.81214 1804.6797 545.49609 C 1801.3658 541.20753 1800.1646 539.90993 1799.4629 540.03711 z M 1799.082 544.94141 C 1800.101 544.95642 1804.7638 550.56648 1814.1543 563.03125 C 1814.9522 564.09042 1815.6002 565.16959 1815.5977 565.42773 C 1815.5843 566.41627 1812.0837 570.49322 1811.6133 570.06836 C 1811.341 569.82254 1808.6278 566.38941 1805.582 562.4375 C 1802.5362 558.48532 1799.9639 555.17986 1799.8672 555.0918 C 1799.7701 555.00381 1797.0315 558.40399 1793.7812 562.64844 C 1789.85 567.78206 1787.6292 570.20697 1787.1504 569.89062 C 1786.7546 569.62957 1785.7796 568.49454 1784.9824 567.36719 L 1783.5332 565.31641 L 1791.1992 555.49609 C 1795.4155 550.09473 1798.8652 545.49454 1798.8652 545.27344 C 1798.8652 545.05087 1798.9365 544.93926 1799.082 544.94141 z M 140.69141 545.20117 L 130.48047 546.40234 C 130.48047 546.40234 131.68105 548.50376 132.58203 549.70508 L 141.5918 550.30664 L 143.99609 549.10547 C 143.99609 549.10547 141.8928 545.80189 140.69141 545.20117 z M 156.00781 545.50195 C 156.00781 545.50195 156.60922 547.90418 157.81055 549.10547 C 157.81055 549.10547 168.6229 550.30626 169.82422 550.00586 L 170.72461 546.40039 C 170.72461 546.40039 157.80983 545.50195 156.00781 545.50195 z M 149.40234 551.50781 L 149.10156 576.73633 L 152.10352 576.43555 L 153.30664 552.10938 L 149.40234 551.50781 z M 134.69336 551.91406 C 128.34026 551.6854 126.70848 561.56932 129.63672 563.52148 C 133.24068 565.92413 137.44668 568.92566 138.34766 566.22266 C 139.24869 563.51969 135.34389 564.12143 134.14258 561.71875 C 132.94125 559.31607 136.24515 554.51038 139.54883 557.51367 C 142.85245 560.517 143.15266 568.62608 136.8457 571.92969 C 130.53874 575.23337 134.74414 575.23437 134.74414 575.23438 C 141.95207 573.13205 150.36117 561.11813 139.84961 553.91016 C 137.87873 552.55871 136.15947 551.96679 134.69336 551.91406 z M 165.36719 551.91406 C 163.90114 551.96698 162.18383 552.55871 160.21289 553.91016 C 149.70133 561.11813 158.11042 573.13205 165.31836 575.23438 C 165.31836 575.23438 169.52376 575.23337 163.2168 571.92969 C 156.90984 568.62608 157.21005 560.517 160.51367 557.51367 C 163.8173 554.51038 167.12118 559.31607 165.91992 561.71875 C 164.7186 564.12143 160.81386 563.51969 161.71484 566.22266 C 162.61582 568.92566 166.81986 565.92428 170.42383 563.52148 C 173.35206 561.56932 171.72029 551.68525 165.36719 551.91406 z M 1799.8945 560.42188 C 1799.9958 560.50514 1802.216 563.32468 1804.8281 566.68555 C 1807.4402 570.04642 1809.5658 573.03931 1809.5469 573.33789 C 1809.5014 574.15283 1800.5573 585.50085 1799.8301 585.66602 C 1799.0413 585.84532 1789.7452 573.71775 1790.0449 572.90039 C 1790.3603 572.04036 1799.6738 560.24084 1799.8945 560.42188 z M 1799.4824 568.05078 C 1799.1511 568.21353 1798.1026 569.40037 1797.1523 570.68945 L 1795.4238 573.0332 L 1797.207 575.45312 C 1798.1879 576.78367 1799.2378 577.99398 1799.5391 578.14062 C 1799.8402 578.28856 1800.9959 577.27076 1802.1074 575.87891 C 1803.2189 574.48702 1804.1512 573.29069 1804.1738 573.22266 C 1804.3713 572.69258 1799.9516 567.82023 1799.4824 568.05078 z M 1787.4824 576.27539 C 1787.6724 576.27539 1790.5173 579.73291 1793.8047 583.95898 L 1799.7812 591.64258 L 1805.416 584.35742 C 1808.5152 580.35097 1811.2956 576.86651 1811.5957 576.61328 C 1811.8957 576.35998 1812.921 577.13328 1813.873 578.33203 C 1814.8251 579.53078 1815.5913 580.81559 1815.5762 581.1875 C 1815.5525 581.7556 1801.0467 600.79866 1800.0098 601.62305 C 1799.8197 601.77411 1796.0124 597.2308 1791.5469 591.52734 L 1783.4277 581.1582 L 1785.2812 578.7168 C 1786.3014 577.37438 1787.2927 576.27539 1787.4824 576.27539 z M 1812.9297 598.63477 C 1812.7455 598.63715 1811.0085 600.68311 1809.0703 603.18164 L 1805.5469 607.72461 L 1809.0078 612.22656 C 1810.9109 614.70189 1812.646 616.72266 1812.8652 616.72266 C 1813.0845 616.72069 1814.8052 614.74507 1816.6875 612.33203 L 1820.1094 607.94531 L 1818.5312 605.81641 C 1817.6629 604.6454 1816.1233 602.54846 1815.1094 601.1582 C 1814.0954 599.76794 1813.1138 598.63272 1812.9297 598.63477 z M 1786.8145 598.6543 C 1786.6303 598.65286 1784.8738 600.68361 1782.9121 603.16797 L 1779.3457 607.68555 L 1782.9121 612.20508 C 1784.8738 614.6911 1786.6304 616.71094 1786.8145 616.71094 C 1786.9986 616.70304 1788.5712 614.8482 1790.3105 612.58789 C 1792.0499 610.32736 1793.4846 608.19789 1793.4922 607.85547 C 1793.5125 607.16102 1787.3417 598.6543 1786.8145 598.6543 z M 1799.4902 613.00391 C 1800.339 613.08115 1802.3018 615.35295 1807.8066 622.45703 C 1812.095 627.99136 1815.6002 632.73827 1815.5977 633.00586 C 1815.5907 633.53673 1812.3272 638.01758 1811.9473 638.01758 C 1811.8187 638.01758 1809.3711 634.9629 1806.5098 631.23047 C 1803.6484 627.49803 1800.9535 624.02397 1800.5215 623.50977 C 1799.8391 622.6977 1799.0498 623.46637 1794.5039 629.36523 C 1791.6261 633.09945 1788.9005 636.59207 1788.4453 637.12695 C 1787.6868 638.01854 1787.4404 637.89566 1785.502 635.65625 L 1783.3867 633.21289 L 1790.877 623.50586 C 1794.9964 618.16731 1798.7356 613.48389 1799.1875 613.09766 C 1799.2704 613.0268 1799.369 612.99287 1799.4902 613.00391 z M 1799.791 628.59375 C 1800.1574 628.69069 1802.5012 631.39027 1805 634.5918 C 1807.4988 637.79359 1809.543 640.65278 1809.543 640.94531 C 1809.543 641.71456 1800.5767 653.09045 1799.8281 653.27148 C 1799.2769 653.40441 1797.9657 651.8408 1791.0293 642.78906 L 1789.5547 640.86523 L 1792.7363 636.91211 C 1794.4865 634.7385 1796.6398 631.93889 1797.5215 630.68945 C 1798.4032 629.43979 1799.4244 628.49737 1799.791 628.59375 z M 1799.5078 635.63477 C 1799.2239 635.77415 1798.1848 636.98135 1797.1992 638.31836 L 1795.4082 640.75 L 1797.584 643.60547 L 1799.7617 646.46289 L 1801.9746 643.70312 C 1803.1914 642.18595 1804.1956 640.9017 1804.2031 640.84766 C 1804.2944 640.32706 1799.8962 635.44352 1799.5078 635.63477 z M 176.17383 639.10352 C 167.10581 639.80103 155.94565 655.84424 165.01367 684.44336 C 174.08169 713.04252 196.40259 726.29538 190.82227 754.89453 C 187.28879 773.00362 182.08213 781.86758 178.73438 785.94531 C 184.81007 779.31122 196.82163 761.76285 191.51953 730.48047 C 184.54413 689.32557 166.40793 672.58365 167.10547 658.63281 C 167.80301 644.68201 176.17383 639.10352 176.17383 639.10352 z M 178.73438 785.94531 C 176.81693 788.03898 175.47656 789.07422 175.47656 789.07422 C 175.47656 789.07422 176.79512 788.30742 178.73438 785.94531 z M 1811.752 644.16211 C 1812.1566 644.1569 1813.04 644.88078 1813.873 645.92969 C 1814.8251 647.12844 1815.5994 648.41325 1815.5918 648.78516 C 1815.5847 649.15687 1812.0751 653.96783 1807.793 659.47656 C 1801.5175 667.54963 1799.8487 669.35628 1799.1875 668.79102 C 1798.7363 668.40539 1794.9964 663.72143 1790.877 658.38281 L 1783.3867 648.67578 L 1785.502 646.23242 C 1787.4404 643.99279 1787.6868 643.87013 1788.4453 644.76172 C 1788.9005 645.29682 1791.6269 648.79017 1794.5039 652.52344 L 1799.7344 659.31055 L 1805.4043 651.99023 C 1808.523 647.96405 1811.3157 644.46417 1811.6094 644.21094 C 1811.6461 644.17927 1811.6941 644.16285 1811.752 644.16211 z M 1812.8516 666.11328 L 1809.2051 670.72852 L 1805.5605 675.34375 L 1809.0117 679.83398 C 1810.9103 682.30357 1812.6437 684.32036 1812.8633 684.31836 C 1813.0825 684.31594 1814.8067 682.34051 1816.6953 679.92773 L 1820.1289 675.54102 L 1818.748 673.67773 C 1817.9889 672.65318 1816.3516 670.53312 1815.1094 668.96484 L 1812.8516 666.11328 z M 1786.8789 666.52344 C 1786.6413 666.40676 1784.8639 668.34388 1782.9297 670.82812 L 1779.4141 675.3457 L 1782.8242 679.83398 C 1784.7003 682.30273 1786.4416 684.32228 1786.6934 684.32031 C 1786.9448 684.31827 1788.6895 682.3407 1790.5703 679.92773 C 1793.8518 675.71768 1793.9467 675.48774 1792.9531 674.21094 C 1792.3836 673.47907 1790.8822 671.498 1789.6152 669.80859 C 1788.3484 668.11914 1787.117 666.64022 1786.8789 666.52344 z M 1800.1992 680.41797 C 1800.4836 680.66356 1804.0661 685.21998 1808.1602 690.54492 C 1812.2542 695.87001 1815.5871 700.54047 1815.5645 700.92383 C 1815.5244 701.63377 1812.4647 705.61328 1811.959 705.61328 C 1811.8064 705.61328 1810.3353 703.87788 1808.6895 701.75586 C 1807.0435 699.63331 1804.3641 696.17658 1802.7363 694.07422 L 1799.7773 690.25195 L 1793.8027 697.93164 C 1790.5164 702.15636 1787.6738 705.59766 1787.4863 705.59766 C 1787.2991 705.5884 1786.3116 704.48634 1785.291 703.15039 L 1783.4355 700.7207 L 1791.5586 690.3457 C 1796.0266 684.63918 1799.9146 680.1723 1800.1992 680.41797 z M 1799.8281 696.22266 C 1800.1741 696.30112 1802.5012 698.98594 1805 702.1875 C 1807.4988 705.38906 1809.553 708.25214 1809.5605 708.54883 C 1809.5853 709.33074 1800.6641 720.67027 1799.8691 720.86719 C 1799.2806 721.01304 1790.6043 710.52137 1790.041 708.98242 C 1789.7439 708.17073 1799.0449 696.04388 1799.8281 696.22266 z M 1799.5625 703.47852 C 1798.8726 703.55888 1798.1743 704.46213 1796.9551 706.25 L 1795.3789 708.56055 L 1797.5488 711.33594 L 1799.7207 714.11133 L 1801.9531 711.32617 C 1803.1815 709.7941 1804.1956 708.49741 1804.2031 708.44336 C 1804.2125 708.38973 1803.2729 707.13317 1802.1133 705.65039 C 1800.9335 704.14196 1800.2524 703.39815 1799.5625 703.47852 z M 1811.7559 711.77148 C 1812.1469 711.78703 1813.0253 712.5879 1813.8633 713.72461 C 1814.821 715.0236 1815.6052 716.30505 1815.5977 716.57227 C 1815.5868 717.29268 1800.4321 736.69313 1799.7676 736.83789 C 1799.4543 736.90588 1795.6821 732.36434 1791.3848 726.74414 L 1783.5723 716.52539 L 1785.002 714.49805 C 1785.7881 713.38358 1786.7546 712.25883 1787.1504 711.99805 C 1787.6292 711.68219 1789.8481 714.10662 1793.7793 719.24023 C 1797.0296 723.48468 1799.7704 726.88494 1799.8672 726.79688 C 1799.9643 726.709 1802.5342 723.40504 1805.5801 719.45312 C 1808.6259 715.50118 1811.3432 712.06315 1811.6191 711.81445 C 1811.6536 711.78335 1811.7 711.76926 1811.7559 711.77148 z M 1812.8418 733.76758 L 1809.1973 738.38281 L 1805.5527 742.99609 L 1809.0078 747.47461 C 1810.9082 749.93788 1812.7203 751.88702 1813.0352 751.80273 C 1813.35 751.71943 1815.0724 749.73553 1816.8613 747.39453 L 1820.1133 743.13672 L 1818.7266 741.27539 C 1817.9637 740.2508 1816.327 738.14187 1815.0898 736.58984 L 1812.8418 733.76758 z M 1786.916 734.30664 C 1786.3431 734.22982 1785.5409 735.22683 1783.082 738.33984 C 1780.359 741.78753 1779.5993 743.16536 1780.0527 743.83789 C 1780.3856 744.33138 1782.0095 746.47751 1783.6621 748.60742 L 1786.668 752.47852 L 1790.3164 747.80859 C 1792.3233 745.23942 1793.8059 742.898 1793.6094 742.60547 C 1793.3009 742.14501 1791.7504 740.1471 1787.6895 734.97852 C 1787.3899 734.59729 1787.1764 734.34156 1786.916 734.30664 z M 1799.4883 747.94922 C 1799.7724 747.8096 1803.515 752.24538 1807.8047 757.80469 C 1812.0945 763.36392 1815.5871 768.20502 1815.5645 768.56445 C 1815.523 769.25116 1812.4423 773.21094 1811.9492 773.21094 C 1811.7918 773.21094 1809.0572 769.85641 1805.8711 765.75781 C 1802.6851 761.65899 1799.8219 758.43098 1799.5078 758.58594 C 1799.1937 758.74022 1797.1644 761.19623 1795 764.04297 C 1789.8761 770.78153 1787.894 773.19179 1787.4766 773.20312 C 1787.2898 773.20679 1786.3173 772.13169 1785.3164 770.81445 L 1783.4961 768.41992 L 1789.6094 760.56836 C 1792.9715 756.25032 1796.4541 751.70244 1797.3477 750.46094 C 1798.2411 749.21959 1799.2041 748.08831 1799.4883 747.94922 z M 1799.4707 764.10547 C 1800.1833 763.96749 1801.3842 765.25758 1804.8086 769.64453 C 1807.4322 773.00559 1809.5578 776.08064 1809.5352 776.47852 C 1809.512 776.87642 1808.4892 778.39962 1807.2617 779.86328 C 1806.0343 781.32702 1803.8397 784.04322 1802.3848 785.89844 L 1799.7402 789.27148 L 1794.668 782.7832 L 1789.5977 776.29492 L 1793.9688 770.62695 C 1796.3737 767.51009 1798.7231 764.63856 1799.1895 764.24609 C 1799.2764 764.17295 1799.3689 764.12518 1799.4707 764.10547 z M 1799.7246 770.48633 L 1797.6191 773.0918 C 1796.4622 774.52503 1795.5156 775.85361 1795.5156 776.04297 C 1795.5156 776.23255 1796.4663 777.61387 1797.627 779.11328 L 1799.7363 781.83984 L 1801.9492 779.05078 C 1804.362 776.00906 1804.3487 775.9032 1801 771.98047 L 1799.7246 770.48633 z M 1811.9785 779.06445 C 1812.1006 779.06445 1812.9661 780.10313 1813.9023 781.37305 C 1814.8385 782.64289 1815.6035 783.91821 1815.6035 784.20508 C 1815.6035 784.94707 1800.4803 804.27977 1799.7793 804.43359 C 1799.46 804.50374 1795.6746 799.9769 1791.3672 794.375 L 1783.5352 784.18945 L 1785.1543 782.03125 C 1786.0449 780.84402 1787.0569 779.79812 1787.4023 779.70703 C 1787.7475 779.6156 1790.656 782.91827 1793.8652 787.04688 L 1799.6992 794.55273 L 1801.1816 792.79688 C 1801.997 791.83087 1804.7108 788.34606 1807.2109 785.05273 C 1809.7111 781.75937 1811.8568 779.06445 1811.9785 779.06445 z M 1786.6602 801.40039 L 1783.6484 805.26953 C 1782.0542 807.31714 1780.6578 809.21016 1780.3887 809.68164 C 1779.8419 809.72909 1779.4473 809.7805 1779.4473 809.83789 C 1779.4473 810.33781 1786.4263 819.09299 1786.8145 819.07031 C 1786.9986 819.06404 1788.5542 817.20924 1790.2715 814.94727 C 1791.9888 812.68514 1793.4209 810.53383 1793.4512 810.16797 C 1793.4616 810.04929 1793.3588 809.95079 1793.1328 809.86719 C 1793.1238 809.84513 1793.132 809.8263 1793.1152 809.80273 C 1792.8543 809.4368 1791.2949 807.39718 1789.6504 805.26953 L 1786.6602 801.40039 z M 1812.9238 801.95117 C 1812.4572 801.95117 1807.4017 808.08528 1806.4141 809.75391 C 1805.9507 809.8154 1805.6395 809.88164 1805.6758 809.95508 C 1806.1995 811.01527 1812.6216 819.08713 1812.9277 819.06445 C 1813.1127 819.05361 1814.681 817.19757 1816.4141 814.93945 C 1818.1472 812.68156 1819.5806 810.53383 1819.5957 810.16797 C 1819.6006 810.05787 1819.4952 809.9665 1819.2969 809.88672 C 1816.6716 806.12807 1813.3232 801.95117 1812.9238 801.95117 z M 1799.4629 809.99023 C 1799.3626 810.0084 1799.2721 810.05516 1799.1875 810.12695 C 1798.5639 810.65605 1781.1467 832.98525 1779.6641 835.15625 C 1779.5245 835.36042 1780.7847 837.23294 1782.4648 839.31641 L 1785.5195 843.10547 L 1782.457 847.11328 L 1779.3945 851.12305 L 1789.5078 864.11719 L 1799.6211 877.11133 L 1791.0039 888.15039 C 1786.2643 894.22145 1781.7209 900.06038 1780.9082 901.125 L 1779.4297 903.06055 L 1782.4238 906.91992 C 1785.7533 911.21244 1785.8023 910.66553 1781.6445 915.83203 L 1779.3594 918.67383 L 1789.4844 931.68555 L 1799.6113 944.69727 L 1789.502 957.6875 L 1779.3906 970.67773 L 1782.4785 974.6543 L 1785.5664 978.63281 L 1782.4961 982.44141 C 1780.1449 985.35674 1779.5704 986.46814 1780.0508 987.18164 C 1780.396 987.69422 1784.9289 993.56719 1790.123 1000.2324 C 1795.5452 1007.1904 1799.3675 1012.6232 1799.0977 1012.9883 C 1798.8395 1013.3378 1794.2802 1019.2065 1788.9668 1026.0293 L 1779.3066 1038.4336 L 1781.6113 1041.1973 C 1785.8886 1046.3283 1785.844 1045.8498 1782.4414 1050.2324 L 1779.3965 1054.1562 L 1788.873 1066.3574 C 1794.0855 1073.0684 1798.7229 1078.8751 1799.1797 1079.2617 C 1799.8524 1079.8311 1801.9206 1077.5111 1810.0605 1067.0547 L 1820.1113 1054.1445 L 1817.1875 1050.3164 C 1815.5796 1048.2112 1814.2656 1046.3616 1814.2656 1046.207 C 1814.2656 1046.0523 1815.6098 1044.1919 1817.2539 1042.0723 C 1820.2397 1038.2229 1820.2411 1038.2164 1819.0176 1036.832 C 1816.8312 1034.3581 1800.2031 1012.7208 1800.2031 1012.3496 C 1800.2031 1012.1515 1803.1058 1008.2851 1806.6523 1003.7578 C 1810.1989 999.23073 1814.6813 993.46948 1816.6152 990.95508 L 1820.1328 986.38281 L 1817.207 982.70508 C 1815.5976 980.68193 1814.279 978.84856 1814.2715 978.63086 C 1814.2673 978.41339 1815.5903 976.54415 1817.209 974.47656 L 1820.1504 970.7168 L 1810.1504 957.87891 C 1804.1422 950.1655 1800.3047 944.72125 1800.5371 944.24023 C 1800.8752 943.54 1805.9567 936.9325 1816.9941 922.83789 L 1820.1484 918.80859 L 1817.207 914.97266 C 1815.5889 912.86323 1814.2756 910.96474 1814.2832 910.75195 C 1814.2928 910.53973 1815.6213 908.7119 1817.2363 906.69141 L 1820.1719 903.01758 L 1817.0059 898.97461 C 1799.3526 876.43237 1799.6913 876.9134 1800.7188 875.89648 C 1801.0847 875.53418 1805.6094 869.80536 1810.7734 863.16602 L 1820.1621 851.09375 L 1817.2129 847.32617 C 1815.5911 845.25454 1814.2639 843.38334 1814.2715 843.16602 C 1814.2756 842.94835 1815.5968 841.11523 1817.2051 839.09375 L 1820.1289 835.41797 L 1814.7324 828.44922 C 1811.765 824.61595 1807.2421 818.76722 1804.6797 815.45117 C 1801.3658 811.16261 1800.1646 809.86305 1799.4629 809.99023 z M 1799.082 814.89453 C 1800.101 814.90959 1804.7638 820.52152 1814.1543 832.98633 C 1814.9522 834.0455 1815.6002 835.12272 1815.5977 835.38086 C 1815.5843 836.36936 1812.0837 840.44822 1811.6133 840.02344 C 1811.341 839.77758 1808.6278 836.34254 1805.582 832.39062 C 1802.5362 828.43845 1799.9639 825.13298 1799.8672 825.04492 C 1799.7701 824.95701 1797.0315 828.35914 1793.7812 832.60352 C 1789.85 837.73713 1787.6292 840.16167 1787.1504 839.8457 C 1786.7546 839.58461 1785.7796 838.44763 1784.9824 837.32031 L 1783.5332 835.27148 L 1791.1992 825.44922 C 1795.4155 820.0479 1798.8652 815.44962 1798.8652 815.22852 C 1798.8652 815.00595 1798.9365 814.89238 1799.082 814.89453 z M 1799.8945 830.37695 C 1799.9958 830.46022 1802.216 833.27776 1804.8281 836.63867 C 1807.4402 839.99958 1809.5658 842.99281 1809.5469 843.29102 C 1809.5014 844.10596 1800.5573 855.45398 1799.8301 855.61914 C 1799.0413 855.79837 1789.7452 843.67088 1790.0449 842.85352 C 1790.3603 841.99352 1799.6738 830.19591 1799.8945 830.37695 z M 1799.4824 838.00391 C 1799.1511 838.16665 1798.1026 839.35545 1797.1523 840.64453 L 1795.4238 842.98828 L 1797.207 845.40625 C 1798.1879 846.73676 1799.2378 847.9471 1799.5391 848.09375 C 1799.8402 848.24157 1800.9959 847.22396 1802.1074 845.83203 C 1803.2189 844.44018 1804.1512 843.24381 1804.1738 843.17578 C 1804.3713 842.6457 1799.9516 837.77336 1799.4824 838.00391 z M 1787.4824 846.22852 C 1787.6724 846.22852 1790.5173 849.68599 1793.8047 853.91211 L 1799.7812 861.5957 L 1805.416 854.3125 C 1808.5152 850.30609 1811.2956 846.81963 1811.5957 846.56641 C 1811.8957 846.31306 1812.921 847.08836 1813.873 848.28711 C 1814.8251 849.48586 1815.5913 850.77067 1815.5762 851.14258 C 1815.5525 851.71064 1801.0467 870.75178 1800.0098 871.57617 C 1799.8197 871.72724 1796.0124 867.18396 1791.5469 861.48047 L 1783.4277 851.11133 L 1785.2812 848.66992 C 1786.3014 847.32755 1787.2927 846.22852 1787.4824 846.22852 z M 1812.9297 868.58984 C 1812.7455 868.59226 1811.0085 870.63819 1809.0703 873.13672 L 1805.5469 877.67773 L 1809.0078 882.17969 C 1810.9109 884.65509 1812.646 886.67773 1812.8652 886.67773 C 1813.0845 886.67569 1814.8052 884.69812 1816.6875 882.28516 L 1820.1094 877.89844 L 1818.5312 875.76953 C 1817.6629 874.59852 1816.1233 872.50362 1815.1094 871.11328 C 1814.0954 869.72306 1813.1138 868.58784 1812.9297 868.58984 z M 1786.8145 868.60742 C 1786.6303 868.60595 1784.8738 870.63666 1782.9121 873.12109 L 1779.3457 877.63867 L 1782.9121 882.1582 C 1784.8738 884.64423 1786.6304 886.66406 1786.8145 886.66406 C 1786.9986 886.65624 1788.5712 884.8014 1790.3105 882.54102 C 1792.0499 880.28052 1793.4846 878.15102 1793.4922 877.80859 C 1793.5125 877.11418 1787.3417 868.60742 1786.8145 868.60742 z M 1799.4902 882.95703 C 1800.339 883.03427 1802.3018 885.3061 1807.8066 892.41016 C 1812.095 897.94444 1815.6002 902.69139 1815.5977 902.95898 C 1815.5907 903.48982 1812.3272 907.9707 1811.9473 907.9707 C 1811.8187 907.9707 1809.3711 904.91802 1806.5098 901.18555 C 1803.6484 897.45307 1800.9535 893.9771 1800.5215 893.46289 C 1799.8391 892.65078 1799.0498 893.41946 1794.5039 899.31836 C 1791.6261 903.05257 1788.9005 906.54516 1788.4453 907.08008 C 1787.6868 907.97159 1787.4404 907.84882 1785.502 905.60938 L 1783.3867 903.16602 L 1790.877 893.45898 C 1794.9964 888.1204 1798.7356 883.43701 1799.1875 883.05078 C 1799.2704 882.97992 1799.369 882.946 1799.4902 882.95703 z M 1799.791 898.54688 C 1800.1574 898.64382 1802.5012 901.3434 1805 904.54492 C 1807.4988 907.74675 1809.543 910.6059 1809.543 910.89844 C 1809.543 911.66772 1800.5767 923.04357 1799.8281 923.22461 C 1799.2769 923.35757 1797.9657 921.79389 1791.0293 912.74219 L 1789.5547 910.81836 L 1792.7363 906.86719 C 1794.4865 904.69358 1796.6398 901.89205 1797.5215 900.64258 C 1798.4032 899.39295 1799.4244 898.4505 1799.791 898.54688 z M 1799.5078 905.58789 C 1799.2239 905.72728 1798.1848 906.93647 1797.1992 908.27344 L 1795.4082 910.70312 L 1797.584 913.55859 L 1799.7617 916.41602 L 1801.9746 913.65625 C 1803.1914 912.13907 1804.1956 910.85483 1804.2031 910.80078 C 1804.2944 910.28015 1799.8962 905.39702 1799.5078 905.58789 z M 1811.752 914.11523 C 1812.1566 914.11005 1813.04 914.83397 1813.873 915.88281 C 1814.8251 917.08157 1815.5994 918.36638 1815.5918 918.73828 C 1815.5847 919.11004 1812.0751 923.92095 1807.793 929.42969 C 1801.5175 937.50276 1799.8487 939.30944 1799.1875 938.74414 C 1798.7363 938.35848 1794.9964 933.67448 1790.877 928.33594 L 1783.3867 918.63086 L 1785.502 916.1875 C 1787.4404 913.9479 1787.6868 913.82329 1788.4453 914.71484 C 1788.9005 915.24999 1791.6269 918.74326 1794.5039 922.47656 L 1799.7344 929.26367 L 1805.4043 921.94336 C 1808.523 917.91722 1811.3157 914.41729 1811.6094 914.16406 C 1811.6461 914.1324 1811.6941 914.11597 1811.752 914.11523 z M 1812.8516 936.06641 L 1809.2051 940.68164 L 1805.5605 945.29688 L 1809.0117 949.78711 C 1810.9103 952.25661 1812.6437 954.27544 1812.8633 954.27344 C 1813.0825 954.27106 1814.8067 952.29367 1816.6953 949.88086 L 1820.1289 945.49414 L 1818.748 943.63281 C 1817.9889 942.60822 1816.3516 940.48628 1815.1094 938.91797 L 1812.8516 936.06641 z M 1786.8789 936.47852 C 1786.6413 936.36184 1784.8639 938.29896 1782.9297 940.7832 L 1779.4141 945.29883 L 1782.8242 949.78906 C 1784.7003 952.25781 1786.4416 954.27544 1786.6934 954.27344 C 1786.9448 954.27143 1788.6895 952.29589 1790.5703 949.88281 C 1793.8518 945.67283 1793.9467 945.44082 1792.9531 944.16406 C 1792.3836 943.43216 1790.8822 941.45113 1789.6152 939.76172 C 1788.3484 938.07231 1787.117 936.5953 1786.8789 936.47852 z M 1800.1992 950.37109 C 1800.4836 950.61673 1804.0661 955.1751 1808.1602 960.5 C 1812.2542 965.82509 1815.5871 970.49551 1815.5645 970.87891 C 1815.5244 971.58885 1812.4647 975.56641 1811.959 975.56641 C 1811.8064 975.56641 1810.3353 973.83111 1808.6895 971.70898 C 1807.0435 969.58648 1804.3641 966.12978 1802.7363 964.02734 L 1799.7773 960.20508 L 1793.8027 967.88672 C 1790.5164 972.11151 1787.6738 975.55078 1787.4863 975.55078 C 1787.2991 975.54148 1786.3116 974.43947 1785.291 973.10352 L 1783.4355 970.67578 L 1791.5586 960.29883 C 1796.0266 954.59235 1799.9146 950.12542 1800.1992 950.37109 z M 1799.8281 966.17773 C 1800.1741 966.25616 1802.5012 968.93903 1805 972.14062 C 1807.4988 975.34219 1809.553 978.20488 1809.5605 978.50195 C 1809.5853 979.2839 1800.6641 990.6234 1799.8691 990.82031 C 1799.2806 990.96616 1790.6043 980.47446 1790.041 978.93555 C 1789.7439 978.12382 1799.0449 965.99896 1799.8281 966.17773 z M 1799.5625 973.43164 C 1798.8726 973.51201 1798.1743 974.41526 1796.9551 976.20312 L 1795.3789 978.51367 L 1797.5488 981.28906 L 1799.7207 984.06445 L 1801.9531 981.2793 C 1803.1815 979.74719 1804.1956 978.45053 1804.2031 978.39648 C 1804.2125 978.34282 1803.2729 977.08638 1802.1133 975.60352 C 1800.9335 974.09507 1800.2524 973.35127 1799.5625 973.43164 z M 1811.7559 981.72656 C 1812.1469 981.7421 1813.0253 982.54096 1813.8633 983.67773 C 1814.821 984.97664 1815.6052 986.25818 1815.5977 986.52539 C 1815.5868 987.24577 1800.4321 1006.6482 1799.7676 1006.793 C 1799.4543 1006.8609 1795.6821 1002.3175 1791.3848 996.69727 L 1783.5723 986.47852 L 1785.002 984.45312 C 1785.7881 983.33866 1786.7546 982.21196 1787.1504 981.95117 C 1787.6292 981.63535 1789.8481 984.05974 1793.7793 989.19336 C 1797.0296 993.43777 1799.7704 996.84002 1799.8672 996.75195 C 1799.9643 996.664 1802.5342 993.35824 1805.5801 989.40625 C 1808.6259 985.45434 1811.3432 982.01627 1811.6191 981.76758 C 1811.6536 981.73647 1811.7 981.72434 1811.7559 981.72656 z M 1812.8418 1003.7227 L 1809.1973 1008.3359 L 1805.5527 1012.9492 L 1809.0078 1017.4277 C 1810.9082 1019.891 1812.7203 1021.8401 1813.0352 1021.7559 C 1813.35 1021.6726 1815.0724 1019.6886 1816.8613 1017.3477 L 1820.1133 1013.0918 L 1818.7266 1011.2285 C 1817.9637 1010.204 1816.327 1008.095 1815.0898 1006.543 L 1812.8418 1003.7227 z M 1786.916 1004.2598 C 1786.3431 1004.183 1785.5409 1005.1799 1783.082 1008.293 C 1780.359 1011.7406 1779.5993 1013.1185 1780.0527 1013.791 C 1780.3856 1014.2845 1782.0095 1016.4306 1783.6621 1018.5605 L 1786.668 1022.4336 L 1790.3164 1017.7617 C 1792.3233 1015.1926 1793.8059 1012.8511 1793.6094 1012.5586 C 1793.3009 1012.0981 1791.7504 1010.1003 1787.6895 1004.9316 C 1787.3899 1004.5504 1787.1764 1004.2947 1786.916 1004.2598 z M 1799.4883 1017.9043 C 1799.7724 1017.7647 1803.515 1022.1986 1807.8047 1027.7578 C 1812.0945 1033.317 1815.5871 1038.1581 1815.5645 1038.5176 C 1815.523 1039.2044 1812.4423 1043.1641 1811.9492 1043.1641 C 1811.7918 1043.1641 1809.0572 1039.8096 1805.8711 1035.7109 C 1802.6851 1031.6121 1799.8219 1028.3841 1799.5078 1028.5391 C 1799.1937 1028.6934 1797.1644 1031.1494 1795 1033.9961 C 1789.8761 1040.7347 1787.894 1043.1449 1787.4766 1043.1562 C 1787.2898 1043.1599 1786.3173 1042.0867 1785.3164 1040.7695 L 1783.4961 1038.373 L 1789.6094 1030.5234 C 1792.9715 1026.2054 1796.4541 1021.6555 1797.3477 1020.4141 C 1798.2411 1019.1727 1799.2041 1018.0434 1799.4883 1017.9043 z M 1799.4707 1034.0586 C 1800.1833 1033.9206 1801.3842 1035.2106 1804.8086 1039.5977 C 1807.4322 1042.9586 1809.5578 1046.0338 1809.5352 1046.4316 C 1809.512 1046.8295 1808.4892 1048.3527 1807.2617 1049.8164 C 1806.0343 1051.2801 1803.8397 1053.9964 1802.3848 1055.8516 L 1799.7402 1059.2246 L 1794.668 1052.7363 L 1789.5977 1046.248 L 1793.9688 1040.5801 C 1796.3737 1037.4632 1798.7231 1034.5918 1799.1895 1034.1992 C 1799.2764 1034.1261 1799.3689 1034.0783 1799.4707 1034.0586 z M 1799.7246 1040.4395 L 1797.6191 1043.0469 C 1796.4622 1044.4801 1795.5156 1045.8067 1795.5156 1045.9961 C 1795.5156 1046.1856 1796.4663 1047.567 1797.627 1049.0664 L 1799.7363 1051.793 L 1801.9492 1049.0039 C 1804.362 1045.9621 1804.3487 1045.8582 1801 1041.9355 L 1799.7246 1040.4395 z M 1811.9785 1049.0176 C 1812.1006 1049.0176 1812.9661 1050.0582 1813.9023 1051.3281 C 1814.8385 1052.598 1815.6035 1053.8713 1815.6035 1054.1582 C 1815.6035 1054.9002 1800.4803 1074.2329 1799.7793 1074.3867 C 1799.46 1074.4569 1795.6746 1069.9301 1791.3672 1064.3281 L 1783.5352 1054.1445 L 1785.1543 1051.9844 C 1786.0449 1050.7971 1787.0569 1049.7516 1787.4023 1049.6602 C 1787.7475 1049.5687 1790.656 1052.8714 1793.8652 1057 L 1799.6992 1064.5078 L 1801.1816 1062.75 C 1801.997 1061.7839 1804.7108 1058.2992 1807.2109 1055.0059 C 1809.7111 1051.7125 1811.8568 1049.0176 1811.9785 1049.0176 z M 1786.6602 1071.3535 L 1783.6484 1075.2227 C 1781.9918 1077.3503 1780.4865 1079.3896 1780.3047 1079.7559 C 1780.0532 1080.2613 1781.6055 1080.4219 1786.7812 1080.4219 C 1792.0335 1080.4219 1793.4811 1080.2692 1793.1152 1079.7559 C 1792.8543 1079.3899 1791.2949 1077.3503 1789.6504 1075.2227 L 1786.6602 1071.3535 z M 1812.9238 1071.9043 C 1812.4066 1071.9043 1806.2344 1079.4605 1806.2344 1080.0938 C 1806.2344 1080.2737 1809.2642 1080.4219 1812.9688 1080.4219 C 1816.6733 1080.4219 1819.58 1080.2411 1819.4277 1080.0215 C 1816.785 1076.2175 1813.3296 1071.9043 1812.9238 1071.9043 z "
       style="fill:#aa4400;fill-opacity:1;stroke-width:0.596995"
       id="path4536" />
  </g>
</svg>
